HIERARCHY
ROOT Hips
{
	OFFSET -0.001795 -0.223333 0.028219
	CHANNELS 6 Xposition Yposition Zposition Zrotation Yrotation Xrotation 
	JOINT LeftUpLeg
	{
		OFFSET 0.069520 -0.091406 -0.006815
		CHANNELS 3 Zrotation Yrotation Xrotation
		JOINT LeftLeg
		{
			OFFSET 0.034277 -0.375199 -0.004496
			CHANNELS 3 Zrotation Yrotation Xrotation
			JOINT LeftFoot
			{
				OFFSET -0.013596 -0.397961 -0.043693
				CHANNELS 3 Zrotation Yrotation Xrotation
				JOINT LeftToe
				{
					OFFSET 0.026358 -0.055791 0.119288
					CHANNELS 3 Zrotation Yrotation Xrotation
					End Site
					{
						OFFSET 0.000000 0.000000 0.000000
					}
				}
			}
		}
	}
	JOINT RightUpLeg
	{
		OFFSET -0.067670 -0.090522 -0.004320
		CHANNELS 3 Zrotation Yrotation Xrotation
		JOINT RightLeg
		{
			OFFSET -0.038290 -0.382569 -0.008850
			CHANNELS 3 Zrotation Yrotation Xrotation
			JOINT RightFoot
			{
				OFFSET 0.015774 -0.398415 -0.042312
				CHANNELS 3 Zrotation Yrotation Xrotation
				JOINT RightToe
				{
					OFFSET -0.025372 -0.048144 0.123348
					CHANNELS 3 Zrotation Yrotation Xrotation
					End Site
					{
						OFFSET 0.000000 0.000000 0.000000
					}
				}
			}
		}
	}
	JOINT Spine
	{
		OFFSET -0.002533 0.108963 -0.026696
		CHANNELS 3 Zrotation Yrotation Xrotation
		JOINT Spine1
		{
			OFFSET 0.005487 0.135180 0.001092
			CHANNELS 3 Zrotation Yrotation Xrotation
			JOINT Spine2
			{
				OFFSET 0.001457 0.052922 0.025425
				CHANNELS 3 Zrotation Yrotation Xrotation
				JOINT Neck
				{
					OFFSET -0.002778 0.213870 -0.042857
					CHANNELS 3 Zrotation Yrotation Xrotation
					JOINT Head
					{
						OFFSET 0.005152 0.064970 0.051349
						CHANNELS 3 Zrotation Yrotation Xrotation
						End Site
						{
							OFFSET 0.000000 0.000000 0.000000
						}
					}
				}
				JOINT LeftShoulder
				{
					OFFSET 0.078845 0.121749 -0.034090
					CHANNELS 3 Zrotation Yrotation Xrotation
					JOINT LeftArm
					{
						OFFSET 0.090977 0.030469 -0.008868
						CHANNELS 3 Zrotation Yrotation Xrotation
						JOINT LeftForeArm
						{
							OFFSET 0.259612 -0.012772 -0.027456
							CHANNELS 3 Zrotation Yrotation Xrotation
							JOINT LeftHand
							{
								OFFSET 0.249234 0.008986 -0.001171
								CHANNELS 3 Zrotation Yrotation Xrotation
								End Site
								{
									OFFSET 0.000000 0.000000 0.000000
								}
							}
						}
					}
				}
				JOINT RightShoulder
				{
					OFFSET -0.081759 0.118833 -0.038615
					CHANNELS 3 Zrotation Yrotation Xrotation
					JOINT RightArm
					{
						OFFSET -0.096012 0.032551 -0.009143
						CHANNELS 3 Zrotation Yrotation Xrotation
						JOINT RightForeArm
						{
							OFFSET -0.253742 -0.013329 -0.021401
							CHANNELS 3 Zrotation Yrotation Xrotation
							JOINT RightHand
							{
								OFFSET -0.255298 0.007772 -0.005559
								CHANNELS 3 Zrotation Yrotation Xrotation
								End Site
								{
									OFFSET 0.000000 0.000000 0.000000
								}
							}
						}
					}
				}
			}
		}
	}
}
MOTION
Frames: 9
Frame Time: 0.050000
0.000000 0.949309 0.000000 -0.514156 -2.513704 5.877264 5.642245 -0.250431 -3.080829 -1.369853 0.279315 -5.561714 3.407479 9.898144 12.181327 0.000000 0.000000 0.000000 -4.667340 0.418155 -3.693040 0.824078 -0.240300 -5.030646 -3.579487 -12.141094 12.747157 0.000000 0.000000 0.000000 6.753379 0.206815 -3.826207 -3.967586 1.666386 -10.387057 -2.280207 7.520859 15.069749 8.546093 -4.069052 -14.117975 0.000000 0.000000 0.000000 -15.620051 -4.334316 -0.340673 -52.639269 -6.571981 -4.250875 -16.777427 -22.395786 3.971546 0.000000 0.000000 0.000000 19.141759 -6.354485 -3.509721 59.774931 6.206419 -3.765509 11.358789 22.469073 3.258699 0.000000 0.000000 0.000000 
0.000561 0.946996 0.001269 -0.771226 -2.732982 6.745302 6.002987 -0.262726 -3.222195 -1.370384 0.287178 -5.871117 3.792566 10.385981 11.579571 0.000000 0.000000 0.000000 -4.245052 0.486702 -4.689183 0.382290 -0.186691 -4.180032 -3.415170 -11.861211 12.669039 0.000000 0.000000 0.000000 7.475710 0.325344 -5.017466 -4.473968 1.845247 -10.212801 -2.429344 7.630707 15.340199 8.069350 -3.772719 -13.974451 0.000000 0.000000 0.000000 -16.037707 -3.372192 -0.853563 -51.203147 -6.384453 -4.205514 -17.954682 -22.456644 4.210916 0.000000 0.000000 0.000000 18.619710 -6.921255 -3.792521 61.129951 5.721969 -4.015911 11.287463 22.942971 3.342505 0.000000 0.000000 0.000000 
0.000849 0.947424 0.002072 -0.390951 -2.298720 6.642848 5.681972 -0.280476 -3.514276 -1.140664 0.240595 -4.664055 3.302666 9.556241 11.179152 0.000000 0.000000 0.000000 -4.584368 0.491935 -4.828603 0.040677 -0.151776 -3.799617 -3.578465 -12.256522 13.463073 0.000000 0.000000 0.000000 6.872382 0.362314 -5.479106 -3.788234 1.600678 -10.331142 -3.034801 7.659407 15.901400 8.308526 -4.124572 -12.943869 0.000000 0.000000 0.000000 -15.701360 -4.125153 -0.494248 -51.353085 -6.704871 -4.152458 -17.689030 -21.161282 3.900739 0.000000 0.000000 0.000000 19.347806 -6.344319 -3.405539 60.185478 5.660519 -4.172007 11.083785 23.364903 3.403525 0.000000 0.000000 0.000000 
0.001071 0.947071 0.002686 -0.415290 -2.865417 6.937560 6.050386 -0.280924 -3.689200 -1.481440 0.266521 -4.664148 3.649047 10.147356 11.640172 0.000000 0.000000 0.000000 -4.597657 0.533880 -5.384399 0.262633 -0.152023 -3.421419 -3.872893 -12.912489 13.804527 0.000000 0.000000 0.000000 6.713766 0.412056 -5.999818 -3.966055 1.664622 -9.751371 -2.538063 7.423120 15.368827 8.184439 -4.236752 -12.178184 0.000000 0.000000 0.000000 -16.304187 -3.131507 -0.950679 -51.693701 -6.820036 -4.071306 -17.386926 -20.816735 3.807947 0.000000 0.000000 0.000000 18.698923 -6.691933 -3.712391 60.372818 5.483575 -4.163762 11.601151 23.677816 3.530593 0.000000 0.000000 0.000000 
0.001260 0.947208 0.003111 -0.339115 -2.644168 6.890453 5.953823 -0.284402 -3.694887 -1.486976 0.266283 -4.668608 3.281958 9.553472 11.544296 0.000000 0.000000 0.000000 -4.564954 0.517281 -5.152816 -0.119306 -0.132183 -3.567891 -4.090914 -13.305559 14.032600 0.000000 0.000000 0.000000 6.277199 0.421872 -6.210881 -3.004618 1.312351 -9.615158 -3.080540 7.298143 15.234803 8.243201 -4.179505 -12.608333 0.000000 0.000000 0.000000 -16.050888 -2.955501 -1.030645 -51.923475 -6.720479 -4.125514 -17.966517 -20.275873 3.799394 0.000000 0.000000 0.000000 18.746744 -6.767045 -3.736615 59.936187 5.132859 -4.322197 12.093609 24.185815 3.731316 0.000000 0.000000 0.000000 
0.001492 0.947375 0.003331 -0.413394 -3.297467 6.938811 5.933997 -0.272442 -3.577403 -1.262176 0.249922 -4.582471 3.936165 10.593652 11.765472 0.000000 0.000000 0.000000 -4.532314 0.543435 -5.482287 -0.234972 -0.107357 -3.142612 -3.744214 -12.753725 13.865851 0.000000 0.000000 0.000000 6.266038 0.426194 -6.203941 -3.065367 1.317144 -10.197067 -2.673897 7.672390 15.747403 8.289244 -4.207459 -12.728969 0.000000 0.000000 0.000000 -16.298995 -2.682154 -1.166515 -52.016395 -6.655294 -4.208321 -17.811925 -20.215853 3.773585 0.000000 0.000000 0.000000 18.384461 -6.486230 -3.554980 60.104136 5.201571 -4.335392 11.864077 24.148583 3.675618 0.000000 0.000000 0.000000 
0.001701 0.947122 0.003503 -0.322399 -3.294570 6.834745 5.847876 -0.264588 -3.384713 -1.320676 0.264155 -4.982044 4.080800 10.918564 12.335479 0.000000 0.000000 0.000000 -4.618506 0.525409 -5.204521 -0.326435 -0.108164 -3.316969 -4.004374 -13.235411 14.032949 0.000000 0.000000 0.000000 6.184706 0.426202 -6.207239 -2.876538 1.247569 -10.304723 -2.932191 7.590453 16.194843 8.590328 -4.286278 -13.507667 0.000000 0.000000 0.000000 -16.043702 -2.705375 -1.090812 -52.236561 -6.489726 -4.357643 -17.943740 -20.591892 3.879635 0.000000 0.000000 0.000000 18.485579 -6.369627 -3.497170 59.901158 5.288611 -4.347943 11.986252 24.660712 3.800395 0.000000 0.000000 0.000000 
0.001858 0.946954 0.003649 -0.365940 -3.347126 6.747099 5.765448 -0.262512 -3.364163 -1.122904 0.248654 -4.916090 4.310462 11.253866 12.139702 0.000000 0.000000 0.000000 -4.548087 0.517324 -5.086687 -0.295110 -0.102700 -3.131511 -4.304553 -13.684852 13.558227 0.000000 0.000000 0.000000 6.215236 0.406575 -5.979634 -2.866413 1.237022 -11.195978 -2.762784 7.800107 17.322230 8.681068 -4.337398 -13.669800 0.000000 0.000000 0.000000 -15.921678 -2.693025 -1.070975 -52.504651 -6.341100 -4.569099 -18.156049 -21.423607 4.093246 0.000000 0.000000 0.000000 18.765216 -6.458291 -3.506538 59.751582 5.382355 -4.441111 12.318796 25.042305 3.972459 0.000000 0.000000 0.000000 
0.001825 0.946716 0.003762 -0.287474 -3.194343 6.780233 5.584000 -0.269292 -3.427918 -1.060660 0.246936 -5.032826 4.421136 11.438362 12.082748 0.000000 0.000000 0.000000 -4.622634 0.507928 -4.944097 -0.321594 -0.108186 -3.310846 -4.674190 -14.297288 13.459813 0.000000 0.000000 0.000000 6.275464 0.423239 -6.147702 -2.811697 1.218854 -11.550368 -2.899477 7.741574 18.076115 8.946970 -4.455421 -14.118289 0.000000 0.000000 0.000000 -15.276729 -2.474677 -1.070972 -53.148679 -6.351123 -4.732695 -18.095958 -22.037887 4.216404 0.000000 0.000000 0.000000 18.670603 -6.607633 -3.557304 59.941700 5.190438 -4.619482 12.267414 25.514147 4.069929 0.000000 0.000000 0.000000 
